Coordinates
version=1
nRows=6
nColumns=36
inDegrees=yes

Units are S.I. units (second, meters, Newtons, ...)
If the header above contains a line with 'inDegrees', this indicates whether rotational values are in degrees (yes) or radians (no).

endheader
time	pelvis_tilt	pelvis_list	pelvis_rotation	pelvis_tx	pelvis_ty	pelvis_tz	hip_flexion_r	hip_adduction_r	hip_rotation_r	knee_angle_r	knee_angle_r_beta	ankle_angle_r	subtalar_angle_r	mtp_angle_r	hip_flexion_l	hip_adduction_l	hip_rotation_l	knee_angle_l	knee_angle_l_beta	ankle_angle_l	subtalar_angle_l	mtp_angle_l	lumbar_extension	lumbar_bending	lumbar_rotation	arm_flex_r	arm_add_r	arm_rot_r	elbow_flex_r	pro_sup_r	arm_flex_l	arm_add_l	arm_rot_l	elbow_flex_l	pro_sup_l
      0.00000000	      0.46521304	     -2.55595250	      1.97874370	     -0.89568425	      1.23428987	     -0.08746646	     -6.39675427	      3.17645354	      1.24130517	      2.74157775	      0.04784956	      6.23630906	     -4.92776589	     -6.13600134	     -5.46451806	     -2.49780129	      1.23068116	      3.38928530	      0.05915419	     11.48348285	     -2.28839690	     -6.13600134	     -5.86352268	      3.81182750	     -0.65101299	      4.77067576	     -6.83132376	     15.67324770	     27.45756703	     77.93905573	      1.57210234	     -5.15269863	     15.73609548	     30.40663956	     71.84712324
      0.00416670	     -2.13243242	     -1.92505327	      1.99966882	     -0.89509139	      1.23168511	     -0.08886419	     -3.05580553	      2.43214031	      2.24384176	      3.40068226	      0.05935310	      8.95999799	     -2.61710145	     -6.72829160	     -2.23554499	     -0.88980857	      2.96204351	      3.68300203	      0.06428051	     10.68529007	     -2.15780310	     -6.72829160	     -2.39214742	      3.20954604	     -0.71442281	      3.29480618	     -5.82418388	      8.15142375	     28.45369988	     86.84829591	      0.78519832	     -4.00167583	     10.06689708	     30.06035849	     78.66896581
      0.00833330	     -3.02304850	     -0.77780997	      1.75770638	     -0.89378223	      1.23046870	     -0.08809421	     -2.49069261	      1.05724925	      1.73831979	      2.55683924	      0.04462526	      9.30429623	     -1.47079658	     -6.78250140	     -1.72057861	      0.42765633	      2.46112398	      3.23538392	      0.05646810	      9.93425392	     -1.95073903	     -6.78250140	     -0.98647489	      1.65239445	     -0.63142641	      2.96748225	     -5.28017057	      7.19150683	     28.79806258	     85.87691204	      0.45233134	     -4.52591639	      9.75764363	     30.13951140	     77.88727627
      0.01250000	     -2.80783211	     -0.22506664	      1.60234103	     -0.89366842	      1.23047033	     -0.08621309	     -3.09700186	      0.41640038	      1.82028228	      2.00663074	      0.03502231	      9.81171543	     -0.73535638	     -6.88362700	     -2.60437443	      1.05216254	      2.23604465	      2.48069082	      0.04329622	      9.69423829	     -2.04770903	     -6.88362700	     -1.10675558	      0.85495138	     -0.17155841	      2.71921187	     -4.95529474	      6.22886423	     28.78824253	     84.05182920	      0.47549090	     -4.91369492	      9.75749340	     29.86861808	     76.58998948
      0.01666670	     -2.79302417	      0.07704092	      1.57410128	     -0.89208530	      1.23236210	     -0.08588916	     -3.42845804	      0.13599112	      1.55895669	      1.51390812	      0.02642268	     10.11903932	     -0.14480276	     -7.03978107	     -3.00715753	      1.45021859	      3.16405142	      1.85574266	      0.03238882	      9.02601166	     -3.36058074	     -7.03978107	     -1.02718879	      0.44141416	      0.08191346	      2.24182746	     -4.81559224	      6.00625811	     29.14756113	     81.08043562	      0.43817049	     -5.11921123	     10.22436932	     29.71643146	     74.39795123
      0.02083330	     -2.58199454	      0.24779921	      1.47261339	     -0.89336694	      1.23015704	     -0.08626785	     -3.80712583	     -0.02885246	      1.49527662	      1.23554203	      0.02156428	     10.23458757	      0.04164920	     -7.15376283	     -3.41849788	      1.70787160	      3.37811287	      1.57223510	      0.02744068	      8.96818203	     -3.56525305	     -7.15376283	     -1.31576981	      0.20147521	      0.51684872	      1.91041814	     -4.91971366	      6.42801373	     29.72369460	     78.42389948	      0.58218601	     -5.27896055	     10.76046670	     29.89501703	     72.40499173
